<?xml version="1.0" encoding="utf-8"?>
<!-- Generator: Adobe Illustrator 25.2.0, SVG Export Plug-In . SVG Version: 6.00 Build 0)  -->
<svg version="1.1" id="Layer_1" xmlns="http://www.w3.org/2000/svg" xmlns:xlink="http://www.w3.org/1999/xlink" x="0px" y="0px"
	 viewBox="0 0 172.8 56" style="enable-background:new 0 0 172.8 56;" xml:space="preserve">
<style type="text/css">
	.st0{fill:#2E2D33;}
	.st1{fill:#FFFFFF;}
</style>
<g>
	<path class="st0" d="M168.2,0H4.8C2.3,0,0.2,2.1,0.2,4.7v46.7c0,2.6,2.1,4.7,4.7,4.7h163.3c2.6,0,4.7-2.1,4.7-4.7V4.7
		C172.8,2.1,170.7,0,168.2,0z"/>
	<path class="st1" d="M68.1,40.5h-2.9l-1.6-5H58l-1.5,5h-2.8l5.5-16.9h3.4L68.1,40.5z M63.1,33.5L61.7,29c-0.2-0.5-0.4-1.5-0.9-3.2
		h-0.1c-0.3,1.1-0.5,2.1-0.8,3.2l-1.4,4.4H63.1z M82.3,34.3c0,2.1-0.6,3.7-1.7,4.9c-1,1.1-2.3,1.6-3.8,1.6c-1.6,0-2.8-0.6-3.5-1.7
		h-0.1v6.4h-2.7V32.3c0-1.3,0-2.6-0.1-4h2.4l0.2,1.9H73c0.9-1.5,2.3-2.2,4.2-2.2c1.5,0,2.7,0.6,3.6,1.7
		C81.8,30.9,82.3,32.4,82.3,34.3z M79.5,34.4c0-1.2-0.3-2.2-0.8-2.9c-0.6-0.8-1.4-1.2-2.4-1.2c-0.7,0-1.3,0.2-1.8,0.7
		c-0.6,0.4-0.9,1-1.1,1.7c-0.1,0.3-0.1,0.6-0.1,0.8v2c0,0.9,0.3,1.6,0.8,2.3c0.6,0.6,1.3,0.9,2.1,0.9c1,0,1.8-0.4,2.4-1.2
		C79.2,36.7,79.5,35.7,79.5,34.4z M96.5,34.3c0,2.1-0.6,3.7-1.7,4.9c-1,1.1-2.3,1.6-3.8,1.6c-1.6,0-2.8-0.6-3.5-1.7h-0.1v6.4h-2.7
		V32.3c0-1.3,0-2.6-0.1-4H87l0.2,1.9h0.1c0.9-1.5,2.3-2.2,4.2-2.2c1.5,0,2.7,0.6,3.6,1.7C96,30.9,96.5,32.4,96.5,34.3z M93.7,34.4
		c0-1.2-0.3-2.2-0.8-2.9c-0.6-0.8-1.4-1.2-2.4-1.2c-0.7,0-1.3,0.2-1.8,0.7c-0.6,0.4-0.9,1-1.1,1.7c-0.1,0.3-0.1,0.6-0.1,0.8v2
		c0,0.9,0.3,1.6,0.8,2.3c0.6,0.6,1.3,0.9,2.1,0.9c1,0,1.8-0.4,2.4-1.2C93.4,36.7,93.7,35.7,93.7,34.4z M112.4,35.8
		c0,1.4-0.5,2.6-1.5,3.5c-1.1,1-2.7,1.5-4.7,1.5c-1.8,0-3.3-0.4-4.4-1.1l0.6-2.3c1.2,0.7,2.5,1.1,4,1.1c1,0,1.8-0.2,2.4-0.7
		c0.6-0.5,0.9-1.1,0.9-1.9c0-0.7-0.2-1.3-0.7-1.7c-0.5-0.5-1.3-0.9-2.4-1.3c-3-1.1-4.5-2.7-4.5-4.9c0-1.4,0.5-2.5,1.6-3.4
		c1-0.9,2.4-1.3,4.2-1.3c1.6,0,2.9,0.3,3.9,0.8l-0.7,2.2c-1-0.5-2.1-0.8-3.3-0.8c-1,0-1.7,0.2-2.3,0.7c-0.2,0.2-0.4,0.4-0.5,0.7
		c-0.1,0.3-0.2,0.6-0.2,0.8c0,0.7,0.3,1.2,0.8,1.7c0.5,0.4,1.3,0.8,2.5,1.3c1.5,0.6,2.6,1.3,3.3,2.1
		C112.1,33.6,112.4,34.6,112.4,35.8z M121.5,30.3h-3v5.9c0,1.5,0.5,2.3,1.6,2.3c0.5,0,0.9,0,1.2-0.1l0.1,2.1
		c-0.5,0.2-1.3,0.3-2.1,0.3c-1.1,0-1.9-0.3-2.5-1c-0.6-0.7-0.9-1.8-0.9-3.3v-6.2H114v-2h1.8v-2.2l2.7-0.8v3h3V30.3z M135.1,34.3
		c0,1.9-0.5,3.4-1.6,4.6c-1.1,1.2-2.6,1.9-4.5,1.9c-1.8,0-3.3-0.6-4.3-1.8c-1.1-1.2-1.6-2.7-1.6-4.5c0-1.9,0.6-3.4,1.7-4.6
		c1.1-1.2,2.6-1.8,4.5-1.8c1.8,0,3.3,0.6,4.4,1.8C134.6,31,135.1,32.5,135.1,34.3z M132.3,34.4c0-1.1-0.2-2.1-0.7-2.9
		c-0.6-1-1.4-1.5-2.5-1.5c-1.1,0-1.9,0.5-2.5,1.5c-0.5,0.8-0.7,1.8-0.7,2.9c0,1.1,0.2,2.1,0.7,2.9c0.6,1,1.4,1.5,2.5,1.5
		c1,0,1.9-0.5,2.5-1.5C132,36.5,132.3,35.5,132.3,34.4z M144.1,30.7c-0.3-0.1-0.6-0.1-0.9-0.1c-1,0-1.7,0.4-2.2,1.1
		c-0.5,0.6-0.7,1.4-0.7,2.4v6.4h-2.7l0-8.4c0-1.4,0-2.7-0.1-3.8h2.4l0.1,2.3h0.1c0.3-0.8,0.7-1.4,1.4-1.9c0.6-0.4,1.3-0.7,2-0.7
		c0.3,0,0.5,0,0.7,0V30.7z M156.3,33.8c0,0.4,0,0.8-0.1,1.2H148c0,1.2,0.4,2.1,1.2,2.8c0.7,0.6,1.6,0.9,2.7,0.9
		c1.2,0,2.3-0.2,3.3-0.6l0.4,1.9c-1.2,0.5-2.5,0.8-4.1,0.8c-1.9,0-3.4-0.6-4.5-1.7c-1.1-1.1-1.6-2.6-1.6-4.5c0-1.8,0.5-3.4,1.5-4.6
		c1.1-1.3,2.5-2,4.3-2c1.8,0,3.1,0.7,4,2C156,31,156.3,32.3,156.3,33.8z M153.7,33.1c0-0.8-0.2-1.5-0.5-2.1
		c-0.5-0.8-1.2-1.1-2.2-1.1c-0.9,0-1.6,0.4-2.2,1.1c-0.5,0.6-0.7,1.3-0.8,2.1L153.7,33.1L153.7,33.1z"/>
	<path class="st1" d="M59.1,16.3c0,0.6-0.2,1.2-0.7,1.6c-0.6,0.5-1.6,0.7-2.9,0.7c-0.6,0-1.2,0-1.7-0.1v-7.7
		c0.6-0.1,1.2-0.2,2.1-0.2c1,0,1.8,0.2,2.3,0.5c0.5,0.3,0.8,0.8,0.8,1.4c0,0.4-0.1,0.7-0.4,1c-0.3,0.3-0.6,0.6-1,0.7v0
		c0.5,0.1,0.8,0.3,1.2,0.6C58.9,15.3,59.1,15.8,59.1,16.3z M57.5,12.8c0-0.8-0.5-1.1-1.6-1.1c-0.4,0-0.7,0-0.9,0.1V14h0.8
		c0.5,0,0.9-0.1,1.2-0.3c0.1-0.1,0.3-0.2,0.3-0.4C57.4,13.1,57.5,12.9,57.5,12.8z M57.7,16.3c0-0.5-0.2-0.8-0.6-1.1
		c-0.3-0.2-0.8-0.3-1.4-0.3H55v2.7c0.2,0,0.4,0,0.8,0c0.6,0,1-0.1,1.3-0.3C57.5,17.1,57.7,16.8,57.7,16.3z M65.6,18.5h-1.2l-0.1-0.6
		h0c-0.4,0.5-1,0.8-1.7,0.8c-0.6,0-1-0.2-1.4-0.5c-0.2-0.2-0.3-0.3-0.4-0.5c-0.1-0.2-0.1-0.4-0.1-0.6c0-0.7,0.3-1.2,0.9-1.6
		c0.6-0.4,1.5-0.5,2.6-0.5v-0.1c0-0.7-0.4-1.1-1.2-1.1c-0.6,0-1.1,0.1-1.6,0.4l-0.3-0.8c0.6-0.3,1.2-0.5,2-0.5
		c1.6,0,2.3,0.8,2.3,2.3v2.1C65.5,17.8,65.5,18.2,65.6,18.5z M64.2,16.6v-0.9c-1.5,0-2.2,0.4-2.2,1.1c0,0.3,0.1,0.5,0.3,0.7
		c0.2,0.1,0.4,0.2,0.6,0.2c0.3,0,0.6-0.1,0.8-0.3c0.2-0.1,0.3-0.2,0.4-0.4C64.1,17,64.2,16.8,64.2,16.6z M69.3,11.2
		c0,0.1,0,0.2-0.1,0.3c0,0.1-0.1,0.2-0.2,0.2c-0.1,0.1-0.2,0.1-0.3,0.2c-0.1,0-0.2,0.1-0.3,0c-0.1,0-0.2,0-0.3-0.1
		c-0.1,0-0.2-0.1-0.3-0.2c-0.1-0.1-0.1-0.2-0.2-0.2c0-0.1-0.1-0.2-0.1-0.3c0-0.2,0.1-0.4,0.2-0.5c0.2-0.1,0.3-0.2,0.6-0.2
		c0.2,0,0.4,0.1,0.6,0.2c0.1,0.1,0.1,0.2,0.2,0.2C69.2,11,69.3,11.1,69.3,11.2z M69.1,18.5h-1.3v-5.6h1.3V18.5z M76.3,18.5h-1.5
		L74,17.4c-0.2-0.3-0.4-0.6-0.6-0.9h0c-0.2,0.3-0.4,0.6-0.6,0.9l-0.7,1.2h-1.4l2-2.9l-2-2.8h1.5L73,14c0.1,0.2,0.3,0.5,0.6,0.9h0
		c0.2-0.3,0.4-0.6,0.5-0.9l0.7-1.1h1.4l-2,2.7L76.3,18.5z M82.4,18.5h-1.2l-0.1-0.6h0c-0.4,0.5-1,0.8-1.7,0.8c-0.6,0-1-0.2-1.4-0.5
		c-0.2-0.2-0.3-0.3-0.4-0.5c-0.1-0.2-0.1-0.4-0.1-0.6c0-0.7,0.3-1.2,0.9-1.6c0.6-0.4,1.5-0.5,2.6-0.5v-0.1c0-0.7-0.4-1.1-1.2-1.1
		c-0.6,0-1.1,0.1-1.6,0.4l-0.3-0.8c0.6-0.3,1.2-0.5,2-0.5c1.6,0,2.3,0.8,2.3,2.3v2.1C82.3,17.8,82.3,18.2,82.4,18.5z M81,16.6v-0.9
		c-1.5,0-2.2,0.4-2.2,1.1c0,0.3,0.1,0.5,0.3,0.7c0.2,0.1,0.4,0.2,0.6,0.2c0.3,0,0.6-0.1,0.8-0.3c0.2-0.1,0.3-0.2,0.4-0.4
		C81,17,81,16.8,81,16.6z M87.8,14c-0.1,0-0.3,0-0.4,0c-0.5,0-0.8,0.2-1.1,0.5c-0.2,0.3-0.3,0.7-0.3,1.1v2.9h-1.3l0-3.9
		c0-0.6,0-1.2,0-1.8h1.2l0,1.1h0c0.1-0.4,0.4-0.7,0.7-0.9c0.3-0.2,0.6-0.3,1-0.3c0.1,0,0.2,0,0.3,0V14z M98.2,18.5h-1.3v-3.2
		c0-1-0.4-1.5-1.2-1.5c-0.2,0-0.4,0-0.5,0.1c-0.2,0.1-0.3,0.2-0.4,0.3c-0.2,0.3-0.4,0.6-0.4,1v3.3H93v-4c0-0.5,0-1,0-1.6h1.2
		l0.1,0.9h0c0.2-0.3,0.4-0.5,0.7-0.7c0.4-0.2,0.8-0.3,1.2-0.3c0.6,0,1,0.2,1.4,0.5c0.5,0.4,0.7,1,0.7,1.9V18.5z M105,18.5h-1.2
		l-0.1-0.6h0c-0.4,0.5-1,0.8-1.7,0.8c-0.6,0-1-0.2-1.4-0.5c-0.2-0.2-0.3-0.3-0.4-0.5c-0.1-0.2-0.1-0.4-0.1-0.6
		c0-0.7,0.3-1.2,0.9-1.6c0.6-0.4,1.5-0.5,2.6-0.5v-0.1c0-0.7-0.4-1.1-1.2-1.1c-0.6,0-1.1,0.1-1.6,0.4l-0.3-0.8
		c0.6-0.3,1.2-0.5,2-0.5c1.6,0,2.3,0.8,2.3,2.3v2.1C104.9,17.8,104.9,18.2,105,18.5z M103.6,16.6v-0.9c-1.5,0-2.2,0.4-2.2,1.1
		c0,0.3,0.1,0.5,0.3,0.7c0.2,0.1,0.4,0.2,0.6,0.2c0.3,0,0.6-0.1,0.8-0.3c0.1-0.1,0.3-0.2,0.4-0.4C103.6,17,103.6,16.8,103.6,16.6z"
		/>
	<path class="st1" d="M38.7,29c0-4.1,3.4-6.1,3.6-6.2c-2-2.8-5-3.2-6-3.2c-2.5-0.3-5,1.5-6.3,1.5c-1.3,0-3.3-1.5-5.5-1.4
		c-2.8,0-5.4,1.6-6.8,4.1c-2.9,5-0.7,12.4,2.1,16.5c1.4,2,3,4.2,5.2,4.1c2.1-0.1,2.9-1.3,5.4-1.3c2.5,0,3.2,1.3,5.4,1.3
		c2.3,0,3.7-2,5-4c1.6-2.3,2.3-4.5,2.3-4.6C43.1,35.6,38.8,34,38.7,29z M34.6,16.9c1.1-1.4,1.9-3.3,1.7-5.2
		c-1.6,0.1-3.7,1.1-4.9,2.5c-1,1.2-2,3.2-1.7,5C31.5,19.3,33.4,18.3,34.6,16.9z"/>
</g>
</svg>
