<?xml version="1.0" encoding="utf-8"?>
<!-- Generator: Adobe Illustrator 25.2.0, SVG Export Plug-In . SVG Version: 6.00 Build 0)  -->
<svg version="1.1" id="Layer_1" xmlns="http://www.w3.org/2000/svg" xmlns:xlink="http://www.w3.org/1999/xlink" x="0px" y="0px"
	 viewBox="0 0 172.7 56" style="enable-background:new 0 0 172.7 56;" xml:space="preserve">
<style type="text/css">
	.st0{fill:#2E2D33;}
	.st1{fill:#FFFFFF;}
	.st2{fill:#FFFFFF;stroke:#FFFFFF;stroke-width:0.2;stroke-miterlimit:10;}
	.st3{fill:url(#SVGID_1_);}
	.st4{fill:url(#SVGID_2_);}
	.st5{fill:url(#SVGID_3_);}
	.st6{fill:url(#SVGID_4_);}
	.st7{opacity:0.2;enable-background:new    ;}
	.st8{opacity:0.12;enable-background:new    ;}
	.st9{opacity:0.25;fill:#FFFFFF;enable-background:new    ;}
</style>
<g>
	<g>
		<path class="st0" d="M168,0H4.7C2.1,0,0,2.1,0,4.7v46.7C0,53.9,2.1,56,4.7,56H168c2.6,0,4.7-2.1,4.7-4.7V4.7
			C172.7,2.1,170.6,0,168,0z"/>
		<path class="st1" d="M85.4,29.5c-1.1,0-2.2,0.3-3.1,0.9c-0.9,0.6-1.6,1.5-2,2.5c-0.4,1-0.5,2.1-0.3,3.2c0.2,1.1,0.7,2.1,1.5,2.8
			c0.8,0.8,1.8,1.3,2.8,1.5c1.1,0.2,2.2,0.1,3.2-0.3c1-0.4,1.9-1.1,2.5-2.1c0.6-0.9,0.9-2,0.9-3.1c0-0.7-0.1-1.5-0.4-2.1
			c-0.3-0.7-0.7-1.3-1.2-1.8c-0.5-0.5-1.1-0.9-1.8-1.2S86.1,29.5,85.4,29.5z M85.4,38.4c-0.7,0-1.3-0.1-1.9-0.4
			c-0.6-0.3-1-0.8-1.3-1.5c-0.3-0.6-0.4-1.3-0.3-2c0.1-0.7,0.4-1.3,0.9-1.8c0.5-0.5,1-0.8,1.7-1c0.7-0.2,1.3-0.1,2,0.1
			c0.6,0.2,1.2,0.7,1.5,1.2c0.4,0.6,0.6,1.2,0.6,1.9c0,0.4,0,0.9-0.2,1.3c-0.1,0.4-0.4,0.8-0.7,1.1c-0.3,0.3-0.6,0.6-1,0.7
			C86.2,38.3,85.8,38.4,85.4,38.4z M73.3,29.5c-1.1,0-2.2,0.3-3.1,0.9c-0.9,0.6-1.6,1.5-2,2.5c-0.4,1-0.5,2.1-0.3,3.2
			c0.2,1.1,0.7,2.1,1.5,2.8s1.8,1.3,2.8,1.5c1.1,0.2,2.2,0.1,3.2-0.3c1-0.4,1.9-1.1,2.5-2.1c0.6-0.9,0.9-2,0.9-3.1
			c0-0.7-0.1-1.5-0.4-2.1c-0.3-0.7-0.7-1.3-1.2-1.8c-0.5-0.5-1.1-0.9-1.8-1.2S74.1,29.5,73.3,29.5z M73.3,38.4
			c-0.7,0-1.3-0.1-1.9-0.4c-0.6-0.3-1-0.8-1.3-1.5c-0.3-0.6-0.4-1.3-0.3-2c0.1-0.7,0.4-1.3,0.9-1.8c0.5-0.5,1-0.8,1.7-1
			c0.7-0.2,1.3-0.1,2,0.1c0.6,0.2,1.2,0.7,1.5,1.2c0.4,0.6,0.6,1.2,0.6,1.9c0,0.4,0,0.9-0.2,1.3c-0.1,0.4-0.4,0.8-0.7,1.1
			c-0.3,0.3-0.6,0.6-1,0.7C74.2,38.3,73.8,38.4,73.3,38.4z M59,31.2v2.3h5.6c-0.1,1.1-0.5,2.1-1.3,3c-0.6,0.6-1.2,1-2,1.3
			c-0.7,0.3-1.5,0.4-2.3,0.4c-1.6,0-3.2-0.7-4.4-1.8c-1.2-1.2-1.8-2.8-1.8-4.4c0-1.7,0.7-3.3,1.8-4.4c1.2-1.2,2.7-1.8,4.4-1.8
			c1.6,0,3.1,0.6,4.2,1.7l1.6-1.7c-0.8-0.8-1.7-1.4-2.7-1.8c-1-0.4-2.1-0.6-3.2-0.6c-1.1,0-2.3,0.1-3.4,0.6c-1.1,0.4-2.1,1-2.9,1.8
			c-0.8,0.8-1.5,1.8-1.9,2.8c-0.4,1.1-0.7,2.2-0.7,3.4c0,1.2,0.2,2.3,0.7,3.4c0.4,1.1,1.1,2,1.9,2.8c0.8,0.8,1.8,1.4,2.9,1.8
			c1.1,0.4,2.2,0.6,3.4,0.6c1.1,0,2.2-0.1,3.2-0.6c1-0.4,2-1,2.7-1.8c1.4-1.5,2.1-3.5,2-5.5c0-0.5,0-1-0.1-1.5H59z M117.5,33
			c-0.3-1-1-1.9-1.8-2.5c-0.8-0.6-1.8-1-2.9-1c-0.7,0-1.4,0.1-2.1,0.4c-0.6,0.3-1.2,0.7-1.7,1.2c-0.5,0.5-0.9,1.1-1.1,1.8
			c-0.2,0.7-0.3,1.4-0.3,2.1c0,1.2,0.4,2.4,1.1,3.3c0.7,1,1.7,1.7,2.8,2c1.1,0.3,2.3,0.3,3.4-0.1c1.1-0.4,2.1-1.2,2.7-2.2l-1.9-1.3
			c-0.3,0.5-0.7,0.9-1.1,1.1c-0.5,0.3-1,0.4-1.6,0.4c-0.6,0-1.1-0.1-1.6-0.4c-0.5-0.3-0.8-0.7-1.1-1.3l7.3-3.1L117.5,33z M110,34.9
			c0-0.4,0-0.8,0.2-1.2c0.1-0.4,0.3-0.7,0.6-1c0.3-0.3,0.6-0.5,1-0.7c0.4-0.2,0.8-0.3,1.2-0.3c0.4,0,0.8,0.1,1.2,0.3
			c0.4,0.2,0.7,0.5,0.8,0.9L110,34.9z M104.1,40.2h2.4V23.9h-2.4V40.2z M100.1,30.7L100.1,30.7c-0.5-0.4-0.9-0.7-1.4-0.9
			c-0.5-0.2-1-0.3-1.6-0.3c-1.4,0.1-2.7,0.7-3.7,1.7c-1,1-1.5,2.4-1.5,3.8c0,1.4,0.5,2.8,1.5,3.8c1,1,2.3,1.6,3.7,1.7
			c0.5,0,1.1-0.1,1.6-0.3c0.5-0.2,0.9-0.6,1.3-1h0.1v0.8c0,2.1-1.1,3.3-2.9,3.3c-0.6,0-1.2-0.2-1.7-0.6c-0.5-0.4-0.9-0.8-1.1-1.4
			l-2.1,0.9c0.4,1,1.1,1.8,1.9,2.4c0.9,0.6,1.9,0.9,2.9,0.9c2.8,0,5.2-1.7,5.2-5.8v-9.9h-2.2V30.7z M97.3,38.4
			c-0.8-0.1-1.6-0.4-2.2-1.1c-0.6-0.6-0.9-1.4-0.9-2.3c0-0.9,0.3-1.7,0.9-2.3c0.6-0.6,1.4-1,2.2-1.1c0.4,0,0.8,0.1,1.2,0.3
			c0.4,0.2,0.7,0.4,1,0.7c0.3,0.3,0.5,0.7,0.6,1.1c0.1,0.4,0.2,0.8,0.2,1.2c0,0.4,0,0.8-0.1,1.2c-0.1,0.4-0.3,0.8-0.6,1.1
			c-0.3,0.3-0.6,0.6-1,0.7C98.2,38.3,97.8,38.4,97.3,38.4z M128.8,23.9h-5.8v16.3h2.4V34h3.4c0.7,0,1.4,0,2-0.3
			c0.6-0.2,1.2-0.6,1.8-1.1c0.5-0.5,0.9-1,1.2-1.7c0.3-0.6,0.4-1.3,0.4-2c0-0.7-0.1-1.4-0.4-2c-0.3-0.6-0.7-1.2-1.2-1.7
			c-0.5-0.5-1.1-0.8-1.8-1.1C130.2,24,129.5,23.9,128.8,23.9z M128.8,31.7h-3.4v-5.6h3.4c0.7,0,1.4,0.3,2,0.8c0.5,0.5,0.8,1.2,0.8,2
			c0,0.7-0.3,1.4-0.8,2C130.3,31.5,129.6,31.8,128.8,31.7L128.8,31.7z M143.7,29.4c-0.9-0.1-1.8,0.2-2.5,0.6
			c-0.8,0.4-1.4,1.1-1.8,1.9l2.1,0.9c0.2-0.4,0.5-0.7,0.9-0.9c0.4-0.2,0.8-0.3,1.3-0.3c0.3,0,0.6,0,0.9,0.1c0.3,0.1,0.6,0.2,0.8,0.4
			c0.2,0.2,0.4,0.4,0.6,0.7c0.1,0.3,0.2,0.6,0.3,0.9v0.2c-0.8-0.4-1.6-0.6-2.5-0.6c-2.3,0-4.6,1.3-4.6,3.7c0,0.5,0.1,1,0.4,1.5
			c0.2,0.5,0.5,0.9,0.9,1.2c0.4,0.3,0.8,0.6,1.3,0.7c0.5,0.2,1,0.2,1.5,0.2c0.6,0,1.2-0.1,1.8-0.4c0.5-0.3,1-0.7,1.3-1.2h0.1v1.3
			h2.3V34C148.7,31.1,146.5,29.4,143.7,29.4L143.7,29.4z M143.4,38.3c-0.8,0-1.9-0.4-1.9-1.4c0-1.3,1.4-1.7,2.6-1.7
			c0.8,0,1.5,0.2,2.2,0.5c-0.1,0.7-0.4,1.4-0.9,1.8C144.9,38.1,144.2,38.4,143.4,38.3L143.4,38.3z M157.1,29.8l-2.8,7.1h-0.1
			l-2.9-7.1h-2.6l4.3,9.9l-2.5,5.5h2.6l6.5-15.4H157.1z M135.5,40.2h2.4V23.9h-2.4V40.2z"/>
		<path class="st2" d="M50.2,18.5v-6.4h2c0.4,0,0.9,0,1.3,0.2c0.4,0.2,0.8,0.4,1.1,0.7c0.3,0.3,0.5,0.7,0.7,1.1
			c0.2,0.4,0.2,0.8,0.2,1.2c0,0.4-0.1,0.8-0.2,1.2c-0.2,0.4-0.4,0.8-0.7,1.1c-0.3,0.3-0.7,0.5-1.1,0.7c-0.4,0.2-0.8,0.2-1.3,0.2
			H50.2z M51,17.7h1.1c0.3,0,0.6,0,0.9-0.1c0.3-0.1,0.6-0.3,0.8-0.5c0.2-0.2,0.4-0.5,0.5-0.8c0.1-0.3,0.2-0.6,0.1-1
			c0-0.3,0-0.6-0.1-1c-0.1-0.3-0.3-0.6-0.5-0.8c-0.2-0.2-0.5-0.4-0.8-0.5c-0.3-0.1-0.6-0.2-0.9-0.1H51V17.7z"/>
		<path class="st2" d="M56.5,18.5v-6.4h0.8v6.4H56.5z"/>
		<path class="st2" d="M60.7,18.7c-0.5,0-1-0.2-1.4-0.4c-0.4-0.3-0.8-0.8-0.9-1.3l0.7-0.3c0.1,0.3,0.3,0.7,0.6,0.9
			c0.3,0.2,0.6,0.4,0.9,0.4c0.3,0,0.7-0.1,0.9-0.3c0.1-0.1,0.2-0.2,0.3-0.3c0.1-0.1,0.1-0.3,0.1-0.4c0-0.2,0-0.3-0.1-0.5
			c-0.1-0.1-0.2-0.3-0.3-0.4c-0.4-0.2-0.8-0.4-1.2-0.5c-0.5-0.1-0.9-0.4-1.3-0.7c-0.1-0.1-0.3-0.3-0.3-0.5c-0.1-0.2-0.1-0.4-0.1-0.6
			c0-0.2,0-0.5,0.1-0.7c0.1-0.2,0.2-0.4,0.4-0.5c0.4-0.3,0.9-0.5,1.4-0.5c0.5,0,1,0.1,1.4,0.4c0.3,0.2,0.5,0.5,0.7,0.9l-0.7,0.3
			c-0.1-0.2-0.2-0.4-0.4-0.6c-0.2-0.2-0.5-0.3-0.8-0.3c-0.3,0-0.6,0.1-0.8,0.3c-0.1,0.1-0.2,0.2-0.2,0.3c-0.1,0.1-0.1,0.2-0.1,0.4
			c0,0.1,0,0.2,0.1,0.3c0.1,0.1,0.1,0.2,0.2,0.3c0.3,0.2,0.6,0.4,0.9,0.4c0.3,0.1,0.5,0.2,0.8,0.3c0.2,0.1,0.4,0.2,0.6,0.4
			c0.2,0.2,0.4,0.4,0.5,0.6c0.1,0.3,0.2,0.5,0.2,0.8c0,0.3-0.1,0.6-0.2,0.8c-0.1,0.2-0.3,0.4-0.5,0.6c-0.2,0.1-0.4,0.3-0.7,0.3
			C61.2,18.6,60.9,18.7,60.7,18.7z"/>
		<path class="st2" d="M64.8,18.5H64v-6.4h2.1c0.5,0,1,0.2,1.4,0.5c0.2,0.2,0.3,0.4,0.4,0.6c0.1,0.2,0.2,0.5,0.1,0.7
			c0,0.3,0,0.5-0.1,0.7c-0.1,0.2-0.3,0.4-0.4,0.6c-0.4,0.4-0.9,0.6-1.4,0.5h-1.3V18.5z M64.8,15.2h1.4c0.2,0,0.3,0,0.5-0.1
			c0.1-0.1,0.3-0.1,0.4-0.3c0.1-0.1,0.2-0.2,0.2-0.4c0.1-0.1,0.1-0.3,0.1-0.4c0-0.1,0-0.3-0.1-0.4c-0.1-0.1-0.1-0.3-0.2-0.4
			c-0.1-0.1-0.2-0.2-0.4-0.3c-0.1-0.1-0.3-0.1-0.5-0.1h-1.4V15.2z"/>
		<path class="st2" d="M74.4,17.7c-0.3,0.3-0.7,0.6-1.1,0.7c-0.4,0.2-0.8,0.3-1.3,0.3c-0.4,0-0.9-0.1-1.3-0.3
			c-0.4-0.2-0.8-0.4-1.1-0.7c-0.3-0.3-0.5-0.7-0.7-1.1c-0.2-0.4-0.2-0.8-0.2-1.3c0-0.4,0.1-0.9,0.2-1.3c0.2-0.4,0.4-0.8,0.7-1.1
			c0.3-0.3,0.7-0.6,1.1-0.7c0.4-0.2,0.8-0.3,1.3-0.3c0.4,0,0.9,0.1,1.3,0.3c0.4,0.2,0.8,0.4,1.1,0.7c0.3,0.3,0.6,0.7,0.7,1.1
			c0.2,0.4,0.2,0.8,0.2,1.3c0,0.4-0.1,0.9-0.2,1.3C75,17,74.8,17.4,74.4,17.7z M70.3,17.2c0.2,0.2,0.5,0.4,0.8,0.5
			c0.3,0.1,0.6,0.2,0.9,0.2c0.3,0,0.6-0.1,0.9-0.2c0.3-0.1,0.6-0.3,0.8-0.5c0.2-0.2,0.4-0.5,0.6-0.8c0.1-0.3,0.2-0.7,0.2-1
			c0-0.3,0-0.7-0.2-1c-0.1-0.3-0.3-0.6-0.5-0.8c-0.2-0.2-0.5-0.4-0.8-0.5c-0.3-0.1-0.6-0.2-0.9-0.2c-0.3,0-0.6,0.1-0.9,0.2
			c-0.3,0.1-0.6,0.3-0.8,0.5c-0.2,0.2-0.4,0.5-0.5,0.8c-0.1,0.3-0.2,0.7-0.2,1c0,0.3,0,0.7,0.2,1C70,16.6,70.1,16.9,70.3,17.2
			L70.3,17.2z"/>
		<path class="st2" d="M76.6,18.5v-6.4h1.1l3.1,5v-1.2v-3.7h0.8v6.4h-0.9l-3.2-5.2v1.2v4H76.6z"/>
		<path class="st2" d="M83,18.5v-6.4h0.8v6.4H83z M83.8,11.6h-0.7l0.5-1.1h0.9L83.8,11.6z"/>
		<path class="st2" d="M86.9,18.5l-2.3-6.4h0.9l1.7,5.2l1.9-5.2h0.9l-2.3,6.4H86.9z"/>
		<path class="st2" d="M94.8,12.9h-2.9v2h2.6v0.8h-2.6v2h2.9v0.8H91v-6.4h3.7V12.9z"/>
		<path class="st2" d="M96.1,18.5v-6.4h0.9v5.6h2.8v0.8H96.1z"/>
		<path class="st2" d="M102.9,18.5v-6.4h1l3.1,5v-1.2v-3.7h0.8v6.4H107l-3.3-5.2v1.2v4H102.9z"/>
		<path class="st2" d="M114.6,17.7c-0.3,0.3-0.7,0.6-1.1,0.7c-0.4,0.2-0.8,0.3-1.3,0.3c-0.4,0-0.9-0.1-1.3-0.3
			c-0.4-0.2-0.8-0.4-1.1-0.7c-0.3-0.3-0.6-0.7-0.7-1.1c-0.2-0.4-0.2-0.8-0.2-1.3c0-0.4,0.1-0.9,0.2-1.3c0.2-0.4,0.4-0.8,0.7-1.1
			c0.3-0.3,0.7-0.6,1.1-0.7c0.4-0.2,0.8-0.3,1.3-0.3s0.9,0.1,1.3,0.3c0.4,0.2,0.8,0.4,1.1,0.7c0.3,0.3,0.6,0.7,0.7,1.1
			c0.2,0.4,0.2,0.8,0.2,1.3c0,0.4-0.1,0.9-0.2,1.3C115.1,17,114.9,17.4,114.6,17.7z M110.5,17.2c0.2,0.2,0.5,0.4,0.8,0.5
			c0.3,0.1,0.6,0.2,0.9,0.2c0.3,0,0.6-0.1,0.9-0.2c0.3-0.1,0.6-0.3,0.8-0.5c0.2-0.2,0.4-0.5,0.5-0.8c0.1-0.3,0.2-0.7,0.2-1
			c0-0.3,0-0.7-0.2-1c-0.1-0.3-0.3-0.6-0.5-0.8c-0.2-0.2-0.5-0.4-0.8-0.5c-0.3-0.1-0.6-0.2-0.9-0.2c-0.3,0-0.6,0.1-0.9,0.2
			c-0.3,0.1-0.6,0.3-0.8,0.5c-0.2,0.2-0.4,0.5-0.5,0.8s-0.2,0.6-0.2,1c0,0.3,0,0.7,0.2,1S110.2,16.9,110.5,17.2z"/>
		
			<linearGradient id="SVGID_1_" gradientUnits="userSpaceOnUse" x1="26.7508" y1="43.1194" x2="6.9762" y2="23.6004" gradientTransform="matrix(1 0 0 -1 0 58)">
			<stop  offset="0" style="stop-color:#00A0FF"/>
			<stop  offset="1.000000e-02" style="stop-color:#00A1FF"/>
			<stop  offset="0.26" style="stop-color:#00BEFF"/>
			<stop  offset="0.51" style="stop-color:#00D2FF"/>
			<stop  offset="0.76" style="stop-color:#00DFFF"/>
			<stop  offset="1" style="stop-color:#00E3FF"/>
		</linearGradient>
		<path class="st3" d="M13.4,13.3c-0.4,0.5-0.6,1.1-0.5,1.6V41c0,0.6,0.2,1.2,0.5,1.7l0.1,0.1l14.4-14.6v-0.4L13.4,13.3L13.4,13.3z"
			/>
		
			<linearGradient id="SVGID_2_" gradientUnits="userSpaceOnUse" x1="40.5621" y1="30.0036" x2="12.4212" y2="30.0036" gradientTransform="matrix(1 0 0 -1 0 58)">
			<stop  offset="0" style="stop-color:#FFE000"/>
			<stop  offset="0.41" style="stop-color:#FFBD00"/>
			<stop  offset="0.78" style="stop-color:#FFA500"/>
			<stop  offset="1" style="stop-color:#FF9C00"/>
		</linearGradient>
		<path class="st4" d="M32.6,33l-4.8-4.9v-0.4l4.8-4.9l0.1,0.1l5.7,3.3c1.6,0.9,1.6,2.5,0,3.4L32.7,33L32.6,33z"/>
		
			<linearGradient id="SVGID_3_" gradientUnits="userSpaceOnUse" x1="30.0838" y1="27.2952" x2="3.2621" y2="0.8318" gradientTransform="matrix(1 0 0 -1 0 58)">
			<stop  offset="0" style="stop-color:#FF3A44"/>
			<stop  offset="1" style="stop-color:#C31162"/>
		</linearGradient>
		<path class="st5" d="M32.8,33l-4.9-5L13.3,42.7c0.3,0.3,0.7,0.5,1.2,0.5c0.4,0,0.9-0.1,1.2-0.4L32.8,33z"/>
		
			<linearGradient id="SVGID_4_" gradientUnits="userSpaceOnUse" x1="9.4285" y1="53.0875" x2="21.4016" y2="41.269" gradientTransform="matrix(1 0 0 -1 0 58)">
			<stop  offset="0" style="stop-color:#32A071"/>
			<stop  offset="7.000000e-02" style="stop-color:#2DA771"/>
			<stop  offset="0.48" style="stop-color:#15CF74"/>
			<stop  offset="0.8" style="stop-color:#06E775"/>
			<stop  offset="1" style="stop-color:#00F076"/>
		</linearGradient>
		<path class="st6" d="M32.8,23l-17-9.8c-0.3-0.3-0.8-0.4-1.2-0.4c-0.4,0-0.9,0.2-1.2,0.5L27.8,28L32.8,23z"/>
		<path class="st7" d="M32.6,32.9l-16.9,9.7C15.4,42.8,15,43,14.6,43c-0.4,0-0.8-0.1-1.2-0.4l-0.1,0.1l0.1,0.1
			c0.3,0.3,0.7,0.4,1.2,0.4c0.4,0,0.8-0.1,1.2-0.4l17-9.8L32.6,32.9z"/>
		<path class="st8" d="M13.4,42.5c-0.4-0.5-0.6-1.1-0.5-1.7V41c0,0.6,0.2,1.2,0.5,1.7l0.1-0.1L13.4,42.5z"/>
		<path class="st8" d="M38.4,29.5l-5.8,3.3l0.1,0.1l5.7-3.3c0.3-0.1,0.6-0.4,0.8-0.7c0.2-0.3,0.4-0.7,0.4-1
			c-0.1,0.3-0.2,0.6-0.4,0.9C39,29.2,38.7,29.4,38.4,29.5z"/>
		<path class="st9" d="M15.8,13.4l22.7,13.1c0.3,0.1,0.6,0.4,0.8,0.6c0.2,0.3,0.4,0.6,0.4,0.9c0-0.4-0.2-0.7-0.4-1
			c-0.2-0.3-0.5-0.5-0.8-0.7L15.8,13.2c-1.6-0.9-2.9-0.2-2.9,1.7v0.2C12.8,13.3,14.1,12.5,15.8,13.4z"/>
	</g>
</g>
</svg>
